<?xml version="1.0" encoding="UTF-8"?>
<svg id="Layer_1" xmlns="http://www.w3.org/2000/svg" version="1.1" viewBox="0 0 1080 394.05">
  <!-- Generator: Adobe Illustrator 29.6.1, SVG Export Plug-In . SVG Version: 2.1.1 Build 9)  -->
  <defs>
    <style>
      .st0 {
        fill: #053641;
      }

      .st1 {
        fill: #c7e7ff;
      }
    </style>
  </defs>
  <g>
    <path class="st0" d="M836.79,104.98c-1.94-3.08-4.88-5.72-8.54-6.59-1.28-.15-2.49-.33-3.8-.48-2.61,0-5,.63-7.24,1.89-7.87,3.38-15.73,6.75-23.59,10.12-1.69-1.85-3.47-3.58-5.24-5.29,1.8-3.17,2.99-6.84,3.09-10.54.32-7.47,3.61-9.68,3.61-9.68,0,0,3.36-3.05,5.23-5.95,2.82-5.2,1.05-10.26-.41-12.99-.24-.61-.53-1.17-.86-1.7-13.77-19.36-34.09,4.82-36.34,20.45-.09.3-.09.54-.15.83-81.32-48.79-190.3,5.27-201.78,98.43-12.12-9.01-30.07-8.47-41.86.87-8.58-66.24-65.4-117.51-133.98-117.51-26.43,1.13-48.89,7.57-67.51,17.88-.03-.06-.03-.2-.03-.3-1.19-6.3-3.87-12.35-7.88-17.29-2.4-3.42-5.53-6.08-8.93-8.5-1.66-1.04-3.37-1.6-5.34-1.66-5.57-1.27-10.97,1.82-13.92,6.43,0,0-5.88,7.37-1.7,15.06,1.86,2.9,5.22,5.95,5.22,5.95,0,0,3.3,2.21,3.61,9.68.11,3.37,1.08,6.76,2.65,9.71-1.97,1.84-3.78,3.77-5.57,5.77-7.62-3.21-15.08-6.54-22.72-9.77-1.6-.96-3.42-1.56-5.32-1.61-11.53-2.2-20.27,11.32-14.26,21.24,1.32,2.16,2.98,3.86,5.13,5.14,6.69,2.88,13.29,5.66,19.93,8.56-44.84,78.47-5.96,199.23,116.64,204.35,70.7-.04,128.95-54.66,134.79-123.85l9.75-7.01c6.08-4.36,14.25-4.41,20.37-.12l10.21,7.14c19.35,169.91,263.7,161.91,269.95-11.51,0-25-6.84-48.55-18.8-68.76,6.8-2.94,13.67-5.87,20.47-8.8,1.66-.92,3.02-2.14,4-3.71,1.28-1.37,2.15-2.99,2.6-4.88.92-3.42.48-7.91-1.48-11ZM384.93,316.05c-62.8,0-113.86-51.1-113.86-113.92,6.21-151.02,221.42-150.98,227.71,0,0,62.82-51.09,113.92-113.85,113.92ZM694.75,316.05c-62.85,0-113.86-51.1-113.86-113.92,6.2-151.02,221.47-150.98,227.73,0,0,62.82-51.09,113.92-113.87,113.92Z"/>
    <path class="st1" d="M271.07,202.13c0,62.82,51.06,113.92,113.86,113.92s113.85-51.1,113.85-113.92c-6.29-150.98-221.5-151.02-227.71,0ZM428.31,222.9s-.02-.02-.05-.06c-.93-1.24-15.99-21.01-21.69-21.39-4.98-.26-23.77,21.1-23.77,21.1,0,0-6.55,5.69-9.52,6.61-.01.01-.02.01-.03.01,0,0-6.7,2.67-12.59-1.43-22.53-20.96,25.68-56.27,46.25-57.14,20.53,1.87,37.78,20.23,47.27,37.42,8.52,16.75-16.6,30.25-25.87,14.88Z"/>
    <path class="st1" d="M580.89,202.13c0,62.82,51.01,113.92,113.86,113.92s113.87-51.1,113.87-113.92c-6.26-150.98-221.53-151.02-227.73,0ZM719.02,227.74c-5.89,4.1-12.59,1.43-12.59,1.43-.01,0-.02,0-.03-.01-2.97-.92-9.52-6.61-9.52-6.61,0,0-18.8-21.36-23.77-21.1-5.7.38-20.76,20.15-21.69,21.39-.03.04-.05.06-.05.06-9.27,15.37-34.39,1.87-25.87-14.88,9.49-17.19,26.73-35.55,47.27-37.42,20.57.87,68.78,36.18,46.25,57.14Z"/>
  </g>
  <path class="st0" d="M719.02,227.74c-5.89,4.1-12.59,1.43-12.59,1.43-.01,0-.02,0-.03-.01-2.97-.92-9.52-6.61-9.52-6.61,0,0-18.8-21.36-23.77-21.1-5.7.38-20.76,20.15-21.69,21.39-.03.04-.05.06-.05.06-9.27,15.37-34.39,1.87-25.87-14.88,9.49-17.19,26.73-35.55,47.27-37.42,20.57.87,68.78,36.18,46.25,57.14Z"/>
  <path class="st0" d="M428.31,222.9s-.02-.02-.05-.06c-.93-1.24-15.99-21.01-21.69-21.39-4.98-.26-23.77,21.1-23.77,21.1,0,0-6.55,5.69-9.52,6.61-.01.01-.02.01-.03.01,0,0-6.7,2.67-12.59-1.43-22.53-20.96,25.68-56.27,46.25-57.14,20.53,1.87,37.78,20.23,47.27,37.42,8.52,16.75-16.6,30.25-25.87,14.88Z"/>
</svg>