<?xml version="1.0" encoding="UTF-8"?>
<svg id="Layer_1" xmlns="http://www.w3.org/2000/svg" version="1.1" viewBox="0 0 1080 394.05">
  <!-- Generator: Adobe Illustrator 29.6.1, SVG Export Plug-In . SVG Version: 2.1.1 Build 9)  -->
  <defs>
    <style>
      .st0 {
        fill: #053641;
      }

      .st1 {
        fill: #c7e7ff;
      }
    </style>
  </defs>
  <g>
    <path class="st0" d="M836.13,105.18c-1.94-3.07-4.87-5.7-8.52-6.57-1.28-.15-2.49-.33-3.79-.48-2.61,0-4.99.63-7.23,1.89-7.85,3.37-15.69,6.73-23.54,10.09-1.68-1.84-3.46-3.57-5.23-5.27,1.8-3.17,2.99-6.83,3.09-10.52.32-7.46,3.6-9.66,3.6-9.66,0,0,3.35-3.04,5.22-5.94,2.81-5.18,1.05-10.24-.41-12.96-.24-.6-.52-1.17-.86-1.7-13.74-19.31-34.01,4.82-36.26,20.41-.09.3-.09.54-.14.83-81.15-48.69-189.88,5.26-201.33,98.21-12.1-8.99-30.01-8.45-41.78.87-8.56-66.09-65.26-117.25-133.68-117.25-26.37,1.12-48.78,7.55-67.36,17.84-.03-.06-.03-.2-.03-.3-1.18-6.28-3.86-12.33-7.86-17.25-2.4-3.41-5.51-6.07-8.92-8.49-1.65-1.03-3.36-1.59-5.32-1.65-5.56-1.27-10.94,1.82-13.89,6.42,0,0-5.86,7.35-1.69,15.02,1.85,2.9,5.2,5.94,5.2,5.94,0,0,3.3,2.2,3.61,9.66.1,3.36,1.07,6.74,2.64,9.68-1.97,1.85-3.78,3.77-5.56,5.77-7.6-3.21-15.05-6.53-22.67-9.75-1.59-.97-3.41-1.56-5.3-1.61-11.51-2.2-20.24,11.3-14.23,21.2,1.32,2.15,2.97,3.85,5.11,5.12,6.68,2.88,13.26,5.65,19.89,8.54-44.74,78.3-5.95,198.79,116.38,203.9,70.55-.04,128.67-54.54,134.49-123.58l9.73-7c6.06-4.34,14.22-4.39,20.32-.11l10.19,7.12c19.31,169.54,263.11,161.55,269.35-11.48,0-24.94-6.82-48.45-18.76-68.61,6.79-2.93,13.65-5.85,20.43-8.78,1.65-.92,3.02-2.14,3.99-3.7,1.28-1.37,2.15-2.98,2.59-4.87.92-3.41.48-7.89-1.47-10.98ZM385.27,315.79c-62.66,0-113.6-50.99-113.6-113.67,6.19-150.68,220.93-150.64,227.2,0,0,62.68-50.98,113.67-113.6,113.67ZM694.41,315.79c-62.72,0-113.61-50.99-113.61-113.67,6.18-150.68,220.97-150.64,227.22,0,0,62.68-50.98,113.67-113.61,113.67Z"/>
    <path class="st1" d="M271.67,202.12c0,62.68,50.94,113.67,113.6,113.67s113.6-50.99,113.6-113.67c-6.27-150.64-221.01-150.68-227.2,0ZM431.52,232.88c0,11.62-9.5,20.22-20.72,20.72-11.19.51-20.72-9.88-20.72-20.72v-66.41c0-11.62,9.49-20.22,20.72-20.73,11.19-.5,20.72,9.89,20.72,20.73v66.41Z"/>
    <path class="st1" d="M580.8,202.12c0,62.68,50.89,113.67,113.61,113.67s113.61-50.99,113.61-113.67c-6.25-150.64-221.04-150.68-227.22,0ZM688.52,232.88c0,11.62-9.49,20.22-20.72,20.72-11.19.51-20.72-9.88-20.72-20.72v-66.41c0-11.62,9.49-20.22,20.72-20.73,11.19-.5,20.72,9.89,20.72,20.73v66.41Z"/>
  </g>
  <g>
    <path class="st0" d="M431.52,166.47v66.41c0,11.62-9.5,20.22-20.72,20.72-11.19.51-20.72-9.88-20.72-20.72v-66.41c0-11.62,9.49-20.22,20.72-20.73,11.19-.5,20.72,9.89,20.72,20.73Z"/>
    <path class="st0" d="M688.52,166.47v66.41c0,11.62-9.49,20.22-20.72,20.72-11.19.51-20.72-9.88-20.72-20.72v-66.41c0-11.62,9.49-20.22,20.72-20.73,11.19-.5,20.72,9.89,20.72,20.73Z"/>
  </g>
</svg>