<?xml version="1.0" encoding="UTF-8"?>
<svg id="Layer_1" xmlns="http://www.w3.org/2000/svg" version="1.1" viewBox="0 0 1080 1080">
  <!-- Generator: Adobe Illustrator 29.6.1, SVG Export Plug-In . SVG Version: 2.1.1 Build 9)  -->
  <path d="M567.94,745.39c-6.19,23.02-41.36,22.39-47.37-.24-2.52-11.12,9.34-17.02,16.66-12.32,0,0,.74.5.89.64,1.42,1.07,4.22,3.45,6.33,6.81.5-3.15,2.33-6.22,3.64-8.09,0-.02,1.21-1.59,1.41-1.84,1.3-1.48,2.97-2.43,4.96-3.07,11.03-2.67,16.37,8.72,13.48,18.11Z"/>
  <path d="M992.19,812.7c-4.32-2.28-4.8-9-.51-11.72,19.78-14.12,40.87-40.18,46.09-63.85,2.36-10.81,5.56-56.47,1.78-62.46-7.98-13-31.14,5.33-41.96,3.66-40.61-5.99-50.19-103.59-67.25-138.83-9.11-18.87-33.36-49.22-42.47-65.62-23.59-68.78-18.37-113.39-63.37-182.97-51.36-79.35-111.4-86.75-191.97-41.38-1.27.73-4.54,2.11-8.64,3.7l44.9-58.87c9.25-12.16,13.39-27.44,11.47-42.61l-2.65-20.94c-.95-7.41,4.28-14.16,11.68-15.07,7.41-.94,14.16,4.29,15.1,11.69l.62,5.01c.58,4.54,6.35,6.1,9.11,2.47l17.13-22.47c10.2-13.36,7.62-32.41-5.73-42.58-13.32-10.16-32.38-7.62-42.58,5.74l-109.21,143.22c-9.26,12.16-27.52,12.16-36.77,0l-109.25-143.22c-10.17-13.36-29.26-15.9-42.58-5.74-13.32,10.17-15.9,29.22-5.73,42.58l13.28,17.42c2.8,3.63,8.53,2.07,9.11-2.43.87-6.82,6.64-11.8,13.32-11.8.58,0,1.2.04,1.78.11,7.41.91,12.63,7.66,11.69,15.07l-2,15.89c-1.92,15.18,2.18,30.46,11.47,42.62l48.09,63.08c-19.12-7.48-38.54-16.3-38.62-16.34-1.66-.76-26.53-10.19-31.32-11.47-29.8-9.21-65.84-.87-74.99,3.85-.11.04-21.96,11.04-33.68,20.84-52.88,46.27-79.34,121.01-100.76,187.18-25.59,62.5-34.62,66.16-54.88,117.85-13.72,34.84-16.62,110.49-55.64,122.75-17.49,5.48-50.67-27.55-50.67,20.44,0,42.68,22.29,77.13,49.47,106.6,3.02,3.34,2.18,8.6-1.63,10.78-55.64,31.76-78.04,109.65-41.63,164.31,9.69,13.72,29.36,24.68,42.86,31.14,8.53,4.07,14.85,4.76,27.33,6.03h841.68c12.08,0,57.67-11.22,73.68-36.73,36.88-58.55,12.59-133.61-45.15-166.93ZM286.33,584c0-22.47,8.79-43.59,24.68-59.56,25.16-23.56,50.17-23.81,74.59-25.63,34.05,1.49,45.12,13.76,86.72,12.42,22.32-.33,31.54-3.67,41.88-6.61,11.18,33.36,61.89,62.79,50.56,39.93-5.62-11.29-4.46-27.92-.91-44.32,30.78,2.39,39.39,12.99,78.73,11,19.6-.98,31.11-4.65,40.33-7.52,9.72-3.16,16.84-5.37,32.19-3.99,41.52,1.52,84.57,30.23,85.3,84.28v42.94c0,102.97-83.81,186.71-186.67,186.71h-140.65c-103.16,0-186.75-83.59-186.75-186.71v-42.94ZM396.46,995.49h-130.02c-8.67,0-15.46-7.15-15.42-15.79.29-39.92,32.77-72.23,72.73-72.23,38.84-.4,72.16,32.09,72.67,70.74.11.62,0,16.15.04,17.28ZM579.96,963.45c-9.36,34.81-62.54,33.85-71.63-.36-3.81-16.82,14.12-25.74,25.19-18.63,0,0,1.12.76,1.35.97,2.15,1.61,6.38,5.21,9.57,10.29.76-4.76,3.52-9.4,5.5-12.23.02-.03,1.83-2.4,2.14-2.78,1.96-2.24,4.49-3.68,7.5-4.64,16.67-4.04,24.75,13.18,20.38,27.38ZM666.32,994.33c-1.6.43-16.23.83-37.53,1.01,20.69-56.25-24.07-119.63-84.32-118.47-60.29-1.16-104.93,62.22-84.28,118.55-22.54-.26-38.11-.66-39.78-1.09v-14.16c0-28.27-12.16-53.72-31.61-71.39-2.54-38.19,27.55-71.36,66.06-71.22h176.94c38.47-.14,68.64,33,66.1,71.22-19.35,17.67-31.58,43.12-31.58,71.39v14.16ZM820.29,995.49h-130.02c0-1.13-.18-16.7.08-17.24q-.08-.04,0-.18c.47-38.66,33.86-70.96,72.66-70.6,39.93,0,72.41,32.31,72.67,72.23.11,8.64-6.72,15.79-15.39,15.79Z"/>
  <path d="M763.52,575.18c-1.45-2.29-3.63-4.25-6.35-4.9-.95-.11-1.85-.25-2.83-.36-1.93,0-3.71.47-5.38,1.41-5.84,2.51-11.68,5.01-17.53,7.52-1.24-1.37-2.57-2.67-3.88-3.93.09-.18.2-.39.32-.62.18-.35.37-.74.57-1.18.87-1.9,1.32-3.95,1.4-6.03.23-5.56,2.68-7.2,2.68-7.2,0,0,2.5-2.27,3.89-4.42,2.1-3.87.78-7.63-.3-9.65-.18-.45-.4-.87-.65-1.27-10.23-14.38-25.33,3.59-27,15.2-.07.22-.07.4-.11.62-60.43-36.26-141.41,3.92-149.94,73.14-4.44-3.31-9.95-4.89-15.46-4.79-5.61.09-11.21,1.92-15.65,5.44-6.38-49.22-48.6-87.33-99.56-87.33-19.63.84-36.33,5.63-50.16,13.29-.03-.04-.03-.15-.03-.22-.88-4.68-2.87-9.18-5.85-12.85-.8-1.05-1.58-2.07-2.54-2.98-1.23-1.23-2.68-2.28-4.1-3.34-1.23-.76-2.5-1.19-3.96-1.23-4.14-.94-8.15,1.35-10.35,4.78,0,0-4.36,5.48-1.26,11.19,1.39,2.15,3.89,4.42,3.89,4.42,0,0,2.44,1.64,2.68,7.2.08,2.08.53,4.13,1.4,6.03.2.44.39.83.57,1.18-1.47,1.37-2.82,2.8-4.15,4.29-5.66-2.39-11.21-4.86-16.88-7.26-1.18-.72-2.54-1.16-3.95-1.2-7.15-1.59-13.94,6.39-11.65,13.22.29.87.69,1.7,1.06,2.57.98,1.6,2.2,2.87,3.8,3.81,4.97,2.15,9.87,4.21,14.81,6.36-33.32,58.32-4.42,148.05,86.67,151.86,52.55-.04,95.83-40.62,100.16-92.04l7.26-5.21c4.51-3.24,10.58-3.27,15.13-.09l7.59,5.31c14.37,126.26,195.94,120.32,200.59-8.55,0-18.58-5.08-36.08-13.97-51.1,5.05-2.18,10.16-4.36,15.21-6.54,1.23-.68,2.25-1.59,2.97-2.75.95-1.02,1.6-2.22,1.93-3.63.69-2.54.36-5.88-1.09-8.17ZM427.74,732.02c-46.66,0-84.6-37.97-84.6-84.65,4.62-112.22,164.53-112.19,169.21,0,0,46.68-37.97,84.65-84.61,84.65ZM657.97,732.02c-46.71,0-84.61-37.97-84.61-84.65,4.61-112.22,164.57-112.19,169.22,0,0,46.68-37.97,84.65-84.61,84.65Z"/>
  <path d="M676,666.4c-4.38,3.04-9.35,1.06-9.35,1.06h-.02c-2.21-.69-7.08-4.92-7.08-4.92,0,0-13.96-15.87-17.66-15.67-1.42.09-3.61,1.79-5.93,4.06-.11.1-.22.21-.33.32-4.53,4.49-9.41,10.91-9.86,11.5-.02.04-.03.05-.03.05-6.89,11.42-25.56,1.39-19.23-11.06,7.05-12.77,19.87-26.41,35.13-27.8,15.28.65,51.1,26.88,34.36,42.46Z"/>
  <path d="M459.98,662.8s-.01-.01-.03-.05c-.7-.91-11.89-15.61-16.12-15.88-3.7-.2-17.66,15.67-17.66,15.67,0,0-4.87,4.23-7.08,4.92h-.02s-4.98,1.98-9.36-1.06c-16.74-15.58,19.08-41.81,34.37-42.46,15.26,1.39,28.07,15.03,35.12,27.8,6.34,12.45-12.33,22.48-19.22,11.06Z"/>
</svg>