<?xml version="1.0" encoding="UTF-8"?>
<svg id="Layer_1" xmlns="http://www.w3.org/2000/svg" version="1.1" viewBox="0 0 1080 1080">
  <!-- Generator: Adobe Illustrator 29.6.1, SVG Export Plug-In . SVG Version: 2.1.1 Build 9)  -->
  <defs>
    <style>
      .st0 {
        fill: #d89a7c;
      }

      .st1 {
        fill: #ff92c4;
      }

      .st2 {
        fill: #053641;
      }

      .st3 {
        fill: #c7e7ff;
      }
    </style>
  </defs>
  <g>
    <path class="st2" d="M644.68,550.39c-.08.09-.08.18-.25.26-.26.19-.42.34-.63.5-.02,0-.04.02-.05.04-.05.05-.11.09-.18.14l-.08.09h-.17c.3-.22.56-.41.78-.57.28-.21.48-.36.58-.46Z"/>
    <path class="st2" d="M646.73,549.37c0,.08-.08.08-.08.08-.17.09-.43.09-.6.18-1.45.42,2.31-1.29.68-.26Z"/>
    <path class="st2" d="M647.76,549.03s.07,0,.09,0c0,0,0,0,0,0h-.09Z"/>
    <path class="st2" d="M649.47,548.94c-.35,0-1.19.17-1.62.09.43-.09.76-.17,1.19-.26h.08c.09.09.26.17.35.17Z"/>
    <path class="st2" d="M650.49,549.2c-.17,0-.43-.09-.94-.26.36.03.77-.02.94.26Z"/>
    <path class="st2" d="M652.54,549.63c-.08,0-.17,0-.17-.09-.08,0-.26-.09-.34-.17-1.28-.68,2.99.94.51.26Z"/>
    <path class="st2" d="M664.93,561.07c-.17-.16-.62-.6-.69-.85l.69.85Z"/>
  </g>
  <path class="st0" d="M748.14,343.89c-4.44.39-9.1.71-14.02.96-82.01,4.15-99.96-17.95-164.13-22.93-7.4,34.19-9.82,68.85,1.9,92.39,23.62,47.66-82.1-13.7-105.41-83.24-21.55,6.13-40.77,13.09-87.31,13.78-14.48.46-27.18.14-38.63-.73-48.89,50.87-78.98,119.92-78.98,195.88s29.11,142.75,76.59,193.37c8.3-18.77,27.07-31.86,48.9-31.86,28.35,0,51.55,22.08,53.33,49.98,23.9-31.33,61.63-51.55,104.07-51.55s79.98,20.11,103.88,51.31c1.9-27.79,25.05-49.74,53.31-49.74,21.89,0,40.71,13.16,48.97,32,47.56-50.63,76.73-118.73,76.73-193.51s-30.17-145.22-79.2-196.11ZM571.22,652.06c-6.63,24.65-44.31,23.98-50.74-.26-2.7-11.91,10-18.23,17.84-13.2,0,0,.79.54.96.69,1.52,1.14,4.52,3.69,6.78,7.29.53-3.37,2.49-6.66,3.9-8.66.01-.03,1.29-1.71,1.51-1.98,1.39-1.58,3.18-2.6,5.31-3.28,11.82-2.86,17.54,9.34,14.44,19.4ZM779.83,482.36c-.78,1.25-1.86,2.22-3.18,2.95-5.41,2.34-10.89,4.67-16.3,7.01,9.52,16.09,14.96,34.83,14.96,54.73-4.97,138.05-199.47,144.41-214.87,9.16l-8.13-5.68c-4.87-3.41-11.38-3.37-16.22.09l-7.76,5.58c-4.65,55.08-51.01,98.56-107.29,98.6-97.59-4.08-128.54-100.21-92.85-162.67-5.29-2.31-10.54-4.52-15.86-6.82-1.71-1.01-3.03-2.37-4.08-4.08-.39-.93-.81-1.82-1.13-2.76-2.45-7.32,4.82-15.86,12.48-14.15,1.51.04,2.96.51,4.23,1.28,6.08,2.57,12.02,5.22,18.08,7.78,1.43-1.6,2.87-3.13,4.44-4.6-.18-.37-.39-.8-.6-1.26-.93-2.03-1.41-4.24-1.51-6.47-.24-5.95-2.87-7.7-2.87-7.7,0,0-2.68-2.43-4.16-4.74-3.32-6.12,1.35-11.99,1.35-11.99,2.36-3.67,6.65-6.13,11.09-5.12,1.56.05,2.92.5,4.24,1.32,1.52,1.14,3.08,2.26,4.4,3.57,1.01.99,1.86,2.08,2.72,3.2,3.18,3.93,5.32,8.75,6.27,13.77,0,.07,0,.19.02.23,14.82-8.2,32.71-13.33,53.74-14.23,54.59,0,99.82,40.82,106.65,93.54,4.76-3.76,10.74-5.72,16.76-5.83,5.89-.09,11.8,1.59,16.56,5.13,9.14-74.14,95.88-117.18,160.62-78.35.05-.23.05-.42.11-.65,1.8-12.44,17.97-31.69,28.93-16.28.27.42.5.87.69,1.35,1.16,2.17,2.57,6.2.32,10.34-1.48,2.31-4.16,4.74-4.16,4.74,0,0-2.62,1.75-2.87,7.7-.1,2.23-.58,4.44-1.51,6.46-.21.47-.42.9-.6,1.27-.12.25-.25.47-.35.67,1.41,1.35,2.82,2.73,4.17,4.2,6.26-2.68,12.51-5.36,18.77-8.05,1.79-1.01,3.69-1.5,5.77-1.5,1.04.11,2.01.26,3.03.38,2.91.69,5.25,2.79,6.8,5.24,1.55,2.46,1.9,6.03,1.17,8.75-.35,1.51-1.05,2.8-2.07,3.89Z"/>
  <g>
    <path class="st3" d="M577.02,547.05c0,50.01,40.61,90.68,90.64,90.68s90.64-40.67,90.64-90.68c-4.98-120.18-176.34-120.21-181.28,0ZM646.73,549.37c0,.08-.08.08-.08.08-.17.09-.43.09-.6.18-1.45.42,2.31-1.29.68-.26ZM647.85,549.03c.43-.09.76-.17,1.19-.26h.08c.09.09.26.17.35.17-.35,0-1.19.17-1.62.09ZM649.55,548.94c.36.03.77-.02.94.26-.17,0-.43-.09-.94-.26ZM652.54,549.63c-.08,0-.17,0-.17-.09-.08,0-.26-.09-.34-.17-1.28-.68,2.99.94.51.26ZM664.24,560.22l.69.85c-.17-.16-.62-.6-.69-.85ZM686.98,567.44c-4.69,3.26-10.03,1.14-10.03,1.14,0,0-.01,0-.02-.01-2.36-.73-7.58-5.27-7.58-5.27,0,0-14.96-17-18.92-16.79-1.51.1-3.86,1.92-6.33,4.34.28-.21.48-.36.58-.46-.08.09-.08.18-.25.26-.26.19-.42.34-.63.5-.02,0-.04.02-.05.04-4.86,4.81-10.1,11.71-10.59,12.35-.02.03-.03.04-.03.04-7.38,12.24-27.38,1.5-20.59-11.84,7.55-13.68,21.28-28.3,37.62-29.79,16.37.7,54.75,28.8,36.82,45.49Z"/>
    <path class="st3" d="M330.41,547.05c0,50.01,40.64,90.68,90.63,90.68s90.63-40.67,90.63-90.68c-5.01-120.18-176.32-120.21-181.26,0ZM455.57,563.58s-.02-.01-.04-.04c-.74-.99-12.73-16.73-17.26-17.03-3.97-.21-18.92,16.79-18.92,16.79,0,0-5.22,4.54-7.59,5.27,0,.01-.01.01-.02.01,0,0-5.33,2.12-10.02-1.14-17.93-16.69,20.44-44.79,36.82-45.49,16.34,1.49,30.07,16.11,37.62,29.79,6.78,13.34-13.21,24.08-20.59,11.84Z"/>
  </g>
  <g>
    <path class="st1" d="M583.74,784.58c-9.74,36.18-65.01,35.19-74.47-.37-3.95-17.48,14.69-26.76,26.2-19.37,0,0,1.15.79,1.39,1,2.24,1.69,6.64,5.43,9.96,10.71.78-4.95,3.65-9.78,5.72-12.71.01-.03,1.9-2.5,2.21-2.9,2.05-2.32,4.67-3.82,7.8-4.82,17.33-4.2,25.73,13.7,21.19,28.46Z"/>
    <path class="st1" d="M426.98,903.59c-7.37,9.24-23.23,1.99-21.48-9.48,1.05-5.55,7.61-5.89,10.01-2.3,0,0,.24.37.28.47.43.77,1.24,2.4,1.53,4.35.85-1.33,2.29-2.37,3.26-2.96,0,0,.86-.48,1-.56.88-.42,1.83-.52,2.86-.41,5.54.97,5.72,7.2,2.54,10.9Z"/>
  </g>
  <g>
    <path class="st2" d="M571.22,652.06c-6.63,24.65-44.31,23.98-50.74-.26-2.7-11.91,10-18.23,17.84-13.2,0,0,.79.54.96.69,1.52,1.14,4.52,3.69,6.78,7.29.53-3.37,2.49-6.66,3.9-8.66.01-.03,1.29-1.71,1.51-1.98,1.39-1.58,3.18-2.6,5.31-3.28,11.82-2.86,17.54,9.34,14.44,19.4Z"/>
    <g>
      <g>
        <path class="st2" d="M780.73,469.72c-1.55-2.45-3.89-4.55-6.8-5.24-1.02-.12-1.99-.27-3.03-.38-2.08,0-3.98.49-5.77,1.5-6.26,2.69-12.51,5.37-18.77,8.05-1.35-1.47-2.76-2.85-4.17-4.2.1-.2.23-.42.35-.67.18-.37.39-.8.6-1.27.93-2.02,1.41-4.23,1.51-6.46.25-5.95,2.87-7.7,2.87-7.7,0,0,2.68-2.43,4.16-4.74,2.25-4.14.84-8.17-.32-10.34-.19-.48-.42-.93-.69-1.35-10.96-15.41-27.13,3.84-28.93,16.28-.06.23-.06.42-.11.65-64.74-38.83-151.48,4.21-160.62,78.35-4.76-3.54-10.67-5.22-16.56-5.13-6.02.11-12,2.07-16.76,5.83-6.83-52.72-52.06-93.54-106.65-93.54-21.03.9-38.92,6.03-53.74,14.23-.02-.04-.02-.16-.02-.23-.95-5.02-3.09-9.84-6.27-13.77-.86-1.12-1.71-2.21-2.72-3.2-1.32-1.31-2.88-2.43-4.4-3.57-1.32-.82-2.68-1.27-4.24-1.32-4.44-1.01-8.73,1.45-11.09,5.12,0,0-4.67,5.87-1.35,11.99,1.48,2.31,4.16,4.74,4.16,4.74,0,0,2.63,1.75,2.87,7.7.1,2.23.58,4.44,1.51,6.47.21.46.42.89.6,1.26-1.57,1.47-3.01,3-4.44,4.6-6.06-2.56-12-5.21-18.08-7.78-1.27-.77-2.72-1.24-4.23-1.28-7.66-1.71-14.93,6.83-12.48,14.15.32.94.74,1.83,1.13,2.76,1.05,1.71,2.37,3.07,4.08,4.08,5.32,2.3,10.57,4.51,15.86,6.82-35.69,62.46-4.74,158.59,92.85,162.67,56.28-.04,102.64-43.52,107.29-98.6l7.76-5.58c4.84-3.46,11.35-3.5,16.22-.09l8.13,5.68c15.4,135.25,209.9,128.89,214.87-9.16,0-19.9-5.44-38.64-14.96-54.73,5.41-2.34,10.89-4.67,16.3-7.01,1.32-.73,2.4-1.7,3.18-2.95,1.02-1.09,1.72-2.38,2.07-3.89.73-2.72.38-6.29-1.17-8.75ZM421.04,637.73c-49.99,0-90.63-40.67-90.63-90.68,4.94-120.21,176.25-120.18,181.26,0,0,50.01-40.67,90.68-90.63,90.68ZM667.66,637.73c-50.03,0-90.64-40.67-90.64-90.68,4.94-120.21,176.3-120.18,181.28,0,0,50.01-40.67,90.68-90.64,90.68Z"/>
        <path class="st2" d="M686.98,567.44c-4.69,3.26-10.03,1.14-10.03,1.14,0,0-.01,0-.02-.01-2.36-.73-7.58-5.27-7.58-5.27,0,0-14.96-17-18.92-16.79-1.51.1-3.86,1.92-6.33,4.34-.1.09-.2.19-.3.3-.02,0-.04.02-.05.04-4.86,4.81-10.1,11.71-10.59,12.35-.02.03-.03.04-.03.04-7.38,12.24-27.38,1.5-20.59-11.84,7.55-13.68,21.28-28.3,37.62-29.79,16.37.7,54.75,28.8,36.82,45.49Z"/>
        <path class="st2" d="M455.57,563.58s-.02-.01-.04-.04c-.74-.99-12.73-16.73-17.26-17.03-3.97-.21-18.92,16.79-18.92,16.79,0,0-5.22,4.54-7.59,5.27,0,.01-.01.01-.02.01,0,0-5.33,2.12-10.02-1.14-17.93-16.69,20.44-44.79,36.82-45.49,16.34,1.49,30.07,16.11,37.62,29.79,6.78,13.34-13.21,24.08-20.59,11.84Z"/>
      </g>
      <path class="st2" d="M844.56,413.22c-11.94-28.22-27.61-54.34-46.8-77.99-7.17-8.86-14.84-17.38-23-25.54-29.91-29.9-64.74-53.39-103.52-69.79-40.17-16.99-82.83-25.61-126.79-25.61s-86.61,8.62-126.79,25.61c-38.78,16.4-73.61,39.89-103.52,69.79-8.38,8.39-16.26,17.17-23.62,26.3-18.89,23.45-34.36,49.31-46.17,77.23-16.99,40.16-25.6,82.82-25.6,126.78s8.61,86.62,25.6,126.78c16.41,38.8,39.89,73.62,69.79,103.53,28.93,28.92,62.46,51.83,99.71,68.15,1.26.55,2.53,1.1,3.81,1.64,40.18,16.99,82.83,25.61,126.79,25.61s86.62-8.62,126.79-25.61c1.28-.54,2.55-1.09,3.82-1.64,37.25-16.32,70.77-39.23,99.7-68.15,29.91-29.91,53.39-64.73,69.8-103.53,16.98-40.16,25.6-82.82,25.6-126.78s-8.62-86.62-25.6-126.78ZM583.74,784.58c-9.74,36.18-65.01,35.19-74.47-.37-3.95-17.48,14.69-26.76,26.2-19.37,0,0,1.15.79,1.39,1,2.24,1.69,6.64,5.43,9.96,10.71.78-4.95,3.65-9.78,5.72-12.71.01-.03,1.9-2.5,2.21-2.9,2.05-2.32,4.67-3.82,7.8-4.82,17.33-4.2,25.73,13.7,21.19,28.46ZM750.61,733.51c-8.26-18.84-27.08-32-48.97-32-28.26,0-51.41,21.95-53.31,49.74-23.9-31.2-61.54-51.31-103.88-51.31s-80.17,20.22-104.07,51.55c-1.78-27.9-24.98-49.98-53.33-49.98-21.83,0-40.6,13.09-48.9,31.86-47.48-50.62-76.59-118.66-76.59-193.37s30.09-145.01,78.98-195.88c11.45.87,24.15,1.19,38.63.73,46.54-.69,65.76-7.65,87.31-13.78,23.31,69.54,129.03,130.9,105.41,83.24-11.72-23.54-9.3-58.2-1.9-92.39,64.17,4.98,82.12,27.08,164.13,22.93,4.92-.25,9.58-.57,14.02-.96,49.03,50.89,79.2,120.04,79.2,196.11s-29.17,142.88-76.73,193.51Z"/>
      <path class="st2" d="M301.21,835.37c1.65-.32,3.54.24,5.67,1.69l4.1,2.77c2.13,1.44,3.35,2.99,3.67,4.64.32,1.65-.24,3.54-1.69,5.67l-6.96,10.29c-2.71,4-1.66,9.44,2.34,12.15l1.89,1.28c4,2.71,9.44,1.66,12.15-2.34l6.96-10.29c1.44-2.13,2.99-3.35,4.64-3.67,1.65-.32,3.54.24,5.67,1.69l4.1,2.77c2.13,1.44,3.35,2.99,3.67,4.64.32,1.65-.25,3.54-1.69,5.67l-31.06,45.88c-1.44,2.13-2.99,3.35-4.64,3.67s-3.54-.25-5.67-1.69l-4.1-2.77c-2.13-1.44-3.35-2.99-3.67-4.64-.32-1.65.25-3.54,1.69-5.67l7.96-11.76c2.71-4,1.66-9.44-2.34-12.15l-1.89-1.28c-4-2.71-9.44-1.66-12.15,2.34l-7.96,11.76c-1.44,2.13-2.99,3.35-4.64,3.67-1.65.32-3.54-.25-5.67-1.69l-4.1-2.77c-2.13-1.44-3.35-2.99-3.67-4.64-.32-1.65.25-3.54,1.69-5.67l31.06-45.88c1.44-2.13,2.99-3.35,4.64-3.67Z"/>
      <path class="st2" d="M347.5,888.44c2.57.02,5.08.6,7.54,1.73,3.41,1.57,5.56,3.22,6.44,4.93.88,1.71.86,3.74-.07,6.07,2.88-1.36,5.88-2.12,9-2.28,3.12-.16,6.21.47,9.27,1.87,4.43,2.04,7.54,4.64,9.32,7.78,1.78,3.15,1.89,6.42.31,9.84-1.35,2.94-3.49,4.75-6.42,5.43-2.93.68-5.98.29-9.16-1.17-1.14-.52-1.88-1.17-2.21-1.94-.34-.77-.17-1.88.49-3.31,1.16-2.52,1.61-4.67,1.34-6.46s-1.2-3.06-2.82-3.81c-1.08-.5-2.44-.62-4.08-.36-1.64.26-3.3,1.06-4.97,2.39-1.67,1.34-3.11,3.32-4.32,5.96l-9.11,19.77c-1.08,2.34-2.4,3.79-3.98,4.38-1.58.58-3.53.33-5.87-.74l-4.49-2.07c-2.34-1.08-3.8-2.4-4.38-3.98-.58-1.58-.33-3.53.74-5.87l12.79-27.77c.58-1.26.83-2.25.77-2.97-.07-.72-.32-1.47-.76-2.26-.29-.64-.47-1.16-.54-1.55-.07-.4.04-.92.35-1.58.63-1.38,2.24-2.06,4.8-2.04Z"/>
      <path class="st2" d="M398.26,920c-.17-.75-.49-1.48-.95-2.18-.36-.6-.59-1.11-.7-1.53-.11-.42-.06-.94.15-1.57.49-1.5,2.01-2.39,4.57-2.67,2.55-.27,5.11,0,7.69.85,3.13,1.02,5.47,2.06,7,3.12,1.53,1.06,2.46,2.19,2.79,3.41.33,1.22.21,2.71-.37,4.46l-9.22,28.21c-.43,1.32-.56,2.35-.39,3.1.17.75.49,1.48.95,2.18.36.6.59,1.11.7,1.53.11.42.06.94-.15,1.57-.49,1.5-2.02,2.41-4.58,2.72-2.56.31-5.13.04-7.7-.8-3.14-1.03-5.47-2.07-7-3.12-1.53-1.05-2.45-2.21-2.77-3.46-.32-1.25-.19-2.75.38-4.51l9.22-28.21c.43-1.32.56-2.35.39-3.1Z"/>
      <path class="st2" d="M463.75,976c-4.42,1.39-9.87,1.44-16.33.13-8.53-1.73-14.81-4.98-18.82-9.77-4.01-4.78-5.07-11.86-3.17-21.24,1.89-9.31,5.54-15.4,10.97-18.27,5.43-2.87,12.18-3.49,20.26-1.85,6.72,1.36,11.92,3.46,15.58,6.29,3.67,2.83,5.68,6.2,6.03,10.1.09.89.03,1.86-.18,2.89-.35,1.75-1.2,3.11-2.54,4.08-1.34.97-3.09,1.44-5.23,1.41-.54.03-1.3-.06-2.27-.26-3.75-.76-5.71-3.54-5.88-8.36-.06-2.37-.52-4.09-1.38-5.17-.86-1.08-2.35-1.84-4.49-2.27-2.65-.54-5.02.36-7.11,2.7-2.09,2.34-3.71,6.38-4.88,12.13-1.2,5.95-1.26,10.36-.16,13.24,1.1,2.88,3.46,4.69,7.08,5.42,5.62,1.14,9.82-.64,12.59-5.33.99-1.55,1.95-2.65,2.89-3.3.94-.65,2.09-.84,3.45-.56,3.55.72,4.98,2.83,4.27,6.32-.17.84-.58,2.04-1.23,3.59-1.89,3.99-5.04,6.69-9.46,8.08Z"/>
      <path class="st2" d="M493.65,977.31c-4.9-4.12-7.13-10.92-6.71-20.41.42-9.42,3.26-15.96,8.51-19.62,5.25-3.66,12.25-5.29,21.02-4.9,8.7.39,15.48,2.65,20.34,6.76,4.87,4.12,7.09,10.88,6.66,20.31-.43,9.49-3.25,16.06-8.46,19.72-5.22,3.66-12.17,5.29-20.87,4.9-8.76-.39-15.59-2.65-20.49-6.77ZM513.59,974.54c2.7.12,5.02-1.14,6.96-3.8,1.93-2.65,3.03-6.85,3.29-12.58.5-11.2-1.95-16.92-7.35-17.17-2.77-.12-5.12,1.14-7.05,3.79-1.94,2.65-3.03,6.85-3.29,12.58-.5,11.2,1.98,16.92,7.45,17.17Z"/>
      <path class="st2" d="M600.12,976.76c-3.79,2.67-8.97,4.35-15.52,5.06-8.66.94-15.62-.26-20.89-3.61-5.27-3.34-8.42-9.77-9.45-19.28-1.02-9.44.62-16.35,4.92-20.74,4.3-4.38,10.55-7.01,18.75-7.9,6.82-.74,12.41-.31,16.76,1.27,4.35,1.59,7.29,4.19,8.81,7.8.35.82.59,1.76.7,2.81.19,1.77-.21,3.32-1.19,4.66-.98,1.34-2.5,2.31-4.56,2.93-.51.19-1.26.33-2.24.44-3.8.41-6.51-1.65-8.13-6.18-.77-2.24-1.73-3.74-2.88-4.51-1.15-.77-2.8-1.04-4.96-.81-2.69.29-4.67,1.87-5.96,4.73-1.28,2.86-1.61,7.21-.98,13.04.65,6.03,1.94,10.26,3.86,12.67,1.92,2.41,4.72,3.42,8.39,3.02,5.71-.62,9.17-3.58,10.38-8.89.47-1.78,1.06-3.12,1.75-4.02s1.74-1.43,3.11-1.58c3.61-.39,5.6,1.18,5.99,4.73.09.85.06,2.12-.09,3.79-.59,4.38-2.78,7.9-6.57,10.56Z"/>
      <path class="st2" d="M605.25,904.46c1.98-1.63,4.27-2.81,6.88-3.53,3.18-.87,5.7-1.29,7.56-1.25,1.86.04,3.26.48,4.21,1.31.95.84,1.66,2.14,2.15,3.92l6.37,23.28c2.8-5.76,6.81-9.35,12.03-10.78,6.81-1.86,12.19-1.51,16.14,1.07,3.95,2.58,7.03,7.87,9.22,15.89l3.42,12.5c.3,1.08.74,1.9,1.34,2.46.6.55,1.37,1.08,2.33,1.57,1.18.57,1.87,1.2,2.06,1.9.64,2.35,0,4.46-1.91,6.32-1.92,1.86-4.28,3.17-7.08,3.94-3.18.87-5.7,1.29-7.56,1.25-1.86-.04-3.26-.47-4.21-1.31-.95-.83-1.66-2.14-2.15-3.92l-5.64-20.61c-1.13-4.13-2.38-6.99-3.73-8.57s-3.05-2.09-5.09-1.53c-1.21.33-2.37,1.04-3.47,2.13-1.1,1.09-1.88,2.63-2.32,4.64-.44,2-.28,4.4.48,7.2l5.64,20.61c.7,2.55.63,4.55-.2,6.01-.83,1.46-2.49,2.53-4.97,3.21l-4.77,1.31c-2.48.68-4.45.6-5.91-.23-1.46-.83-2.54-2.52-3.23-5.06l-14.39-52.58c-.37-1.34-.83-2.27-1.38-2.8-.56-.53-1.22-.96-2-1.3-.63-.3-1.11-.6-1.42-.89-.32-.29-.56-.75-.74-1.39-.42-1.53.36-3.11,2.34-4.74Z"/>
      <path class="st2" d="M682.39,910.6c2.89-5.57,8.51-10.26,16.85-14.07,7.02-3.21,13.15-4.38,18.41-3.52,5.25.86,9.21,4.2,11.87,10.02,1.37,3,1.43,5.87.19,8.62-1.25,2.75-4,5.09-8.26,7.04l-18.44,8.44c2.25,4.12,4.54,6.75,6.88,7.9,2.34,1.15,5,1.03,8-.34,3.18-1.45,5.4-2.85,6.68-4.2,1.27-1.34,2.2-3.13,2.78-5.35.41-1.49.8-2.6,1.2-3.32.39-.72.98-1.26,1.76-1.62.6-.27,1.28-.44,2.05-.5,2.1-.16,3.54.6,4.3,2.27.49,1.08.71,2.58.64,4.49-.12,3.39-1.71,6.58-4.76,9.58-3.06,2.99-7.22,5.7-12.5,8.11-7.92,3.62-14.91,4.68-20.96,3.17-6.06-1.51-11.07-6.61-15.05-15.31-3.98-8.7-4.52-15.83-1.63-21.4ZM712.59,907.39c-1.26-2.76-2.87-4.42-4.83-4.97-1.96-.55-4.02-.34-6.18.65-2.04.93-3.23,2.84-3.58,5.72-.35,2.88.28,6.64,1.89,11.27l9.54-4.36c3.84-1.76,4.89-4.52,3.17-8.3Z"/>
      <path class="st2" d="M730.67,891.91c-1.32-.3-2.35-1.04-3.09-2.21-.74-1.17-.96-2.42-.66-3.74.3-1.32,1.04-2.35,2.21-3.08,1.73-1.09,2.99-2.31,3.77-3.66.79-1.35.97-3.22.56-5.61-.56-3-.68-5.22-.35-6.68.33-1.45,1.5-2.82,3.51-4.08,2.12-1.33,3.86-1.76,5.21-1.29,1.35.48,2.75,1.86,4.19,4.15l2.95,4.69,7.87-4.95c1.17-.74,2.42-.96,3.74-.66,1.32.3,2.35,1.04,3.08,2.21s.96,2.42.66,3.74c-.3,1.32-1.04,2.35-2.21,3.08l-7.87,4.95,12.23,19.43c2.42,3.85,4.7,5.11,6.82,3.78.89-.56,1.71-1.55,2.47-2.96.71-1.22,1.51-2.12,2.4-2.68.89-.56,1.79-.72,2.69-.46.9.25,1.68.91,2.35,1.97.88,1.4,1.06,3.05.56,4.97-.51,1.92-1.57,3.85-3.19,5.8-1.62,1.95-3.62,3.68-6.02,5.19-4.41,2.78-8.73,4.08-12.98,3.9-4.24-.17-8.15-3.11-11.74-8.8l-12.33-19.59-3.1,1.95c-1.17.74-2.42.96-3.74.66Z"/>
      <path class="st2" d="M788.28,890.86c-1-1.23-1.47-2.63-1.4-4.22.07-1.59.61-3.01,1.63-4.26.59-.74,1.19-1.36,1.81-1.86,2.35-1.92,4.94-2.24,7.76-.97,1.87.94,3.59,1.46,5.15,1.54,1.56.09,3.03-.43,4.41-1.55,1.28-1.04,1.98-2.17,2.1-3.37.12-1.21-.27-2.37-1.19-3.5-1.08-1.33-2.75-2.14-4.99-2.44-2.24-.3-5.52.25-9.84,1.64-4.31,1.39-7.77,2.27-10.36,2.64-2.59.37-4.74.27-6.44-.3-1.7-.57-3.24-1.7-4.61-3.39-1.67-2.04-2.5-4.5-2.49-7.36,0-2.86.91-5.85,2.71-8.97,1.79-3.12,4.43-6.1,7.91-8.94,3.73-3.04,7.75-5.34,12.06-6.9,4.31-1.55,7.84-1.58,10.59-.08,1.15.68,1.95,1.3,2.41,1.86.71.87,1.08,1.8,1.12,2.79.04.99-.22,1.97-.79,2.94-.74,1.28-1.6,2.32-2.57,3.11-2.2,1.79-4.48,2.12-6.85.99-1.92-.99-3.64-1.44-5.17-1.33-1.53.1-3.14.84-4.83,2.22-2.91,2.38-3.56,4.56-1.93,6.55.75.92,2.29,1.19,4.63.82,2.33-.37,6.46-1.31,12.38-2.82,5.44-1.37,9.77-1.77,12.99-1.21,3.22.56,5.92,2.17,8.09,4.83,1.58,1.94,2.44,4.33,2.58,7.15.13,2.83-.63,5.83-2.29,9.01s-4.28,6.23-7.86,9.15c-5.52,4.5-10.38,7.31-14.57,8.43s-7.62.89-10.27-.69c-.8-.46-1.42-.96-1.88-1.53Z"/>
      <path class="st2" d="M237.9,832.63c-2.72,0-5.43-1.1-7.42-3.26-71.61-78.25-111.24-179.81-111.57-285.96-.18-57.46,10.9-113.24,32.94-165.8,21.28-50.76,51.83-96.38,90.8-135.59s84.39-70.05,135.02-91.65c52.42-22.36,108.13-33.8,165.59-33.98.46,0,.92,0,1.38,0,56.98,0,112.29,11.08,164.42,32.94,50.76,21.28,96.38,51.83,135.59,90.8,39.21,38.97,70.05,84.39,91.65,135.02,22.36,52.42,33.8,108.13,33.98,165.59.33,104.48-37.57,205.07-106.73,283.25-3.68,4.16-10.03,4.55-14.19.87-4.16-3.68-4.55-10.03-.87-14.19,65.88-74.49,102-170.33,101.68-269.87-.7-223.2-182.52-404.31-405.55-404.31-.44,0-.86,0-1.29,0-108.33.34-210.05,42.85-286.41,119.69-76.36,76.84-118.23,178.82-117.89,287.16.32,101.14,38.07,197.9,106.3,272.46,3.75,4.09,3.47,10.45-.63,14.2-1.93,1.76-4.36,2.64-6.78,2.64Z"/>
    </g>
  </g>
</svg>